<mxfile host="app.diagrams.net" modified="2021-08-14T07:25:11.677Z" agent="5.0 (Windows NT 10.0; Win64; x64) AppleWebKit/537.36 (KHTML, like Gecko) Chrome/92.0.4515.131 Safari/537.36" etag="FkWrkhbAv_-MFpvkCmZo" version="14.9.6" type="github">
  <diagram id="l7Ko_PinxQo50UgZ7-K5" name="Page-1">
    <mxGraphModel dx="1408" dy="748" grid="1" gridSize="10" guides="1" tooltips="1" connect="1" arrows="1" fold="1" page="1" pageScale="1" pageWidth="827" pageHeight="1169" math="0" shadow="0">
      <root>
        <mxCell id="0" />
        <mxCell id="1" parent="0" />
        <mxCell id="cFST7dc2pD31edWH3BOT-1" value="全国149市人口减少" style="rounded=0;whiteSpace=wrap;html=1;" parent="1" vertex="1">
          <mxGeometry x="90" y="80" width="440" height="40" as="geometry" />
        </mxCell>
        <mxCell id="cFST7dc2pD31edWH3BOT-2" value="分列到各区域中的23个省份" style="rounded=0;whiteSpace=wrap;html=1;" parent="1" vertex="1">
          <mxGeometry x="90" y="120" width="440" height="30" as="geometry" />
        </mxCell>
        <mxCell id="cFST7dc2pD31edWH3BOT-3" value="东部地区14个" style="rounded=0;whiteSpace=wrap;html=1;" parent="1" vertex="1">
          <mxGeometry x="90" y="150" width="110" height="30" as="geometry" />
        </mxCell>
        <mxCell id="cFST7dc2pD31edWH3BOT-4" value="中部地区47个" style="rounded=0;whiteSpace=wrap;html=1;" parent="1" vertex="1">
          <mxGeometry x="200" y="150" width="110" height="30" as="geometry" />
        </mxCell>
        <mxCell id="cFST7dc2pD31edWH3BOT-5" value="西部地区55个" style="rounded=0;whiteSpace=wrap;html=1;" parent="1" vertex="1">
          <mxGeometry x="310" y="150" width="110" height="30" as="geometry" />
        </mxCell>
        <mxCell id="cFST7dc2pD31edWH3BOT-6" value="东北地区33个" style="rounded=0;whiteSpace=wrap;html=1;" parent="1" vertex="1">
          <mxGeometry x="420" y="150" width="110" height="30" as="geometry" />
        </mxCell>
        <mxCell id="VBDfhCNgzuD13jIUxgFp-1" value="第七次人口普查数据：成都从2010年到2020年人口增长数：58万。" style="text;html=1;align=left;verticalAlign=middle;resizable=0;points=[];autosize=1;strokeColor=none;" parent="1" vertex="1">
          <mxGeometry x="40" y="200" width="370" height="20" as="geometry" />
        </mxCell>
        <mxCell id="sI_rSDqrXAOF6AItgc4k-2" value="" style="shape=curlyBracket;whiteSpace=wrap;html=1;rounded=1;flipH=1;rotation=-90;" vertex="1" parent="1">
          <mxGeometry x="247.5" y="237.5" width="30" height="175" as="geometry" />
        </mxCell>
        <mxCell id="sI_rSDqrXAOF6AItgc4k-3" value="脊椎类动物" style="text;html=1;align=center;verticalAlign=middle;resizable=0;points=[];autosize=1;strokeColor=none;" vertex="1" parent="1">
          <mxGeometry x="250" y="290" width="80" height="20" as="geometry" />
        </mxCell>
        <mxCell id="sI_rSDqrXAOF6AItgc4k-4" value="" style="shape=curlyBracket;whiteSpace=wrap;html=1;rounded=1;flipH=1;rotation=-90;" vertex="1" parent="1">
          <mxGeometry x="150" y="340" width="40" height="120" as="geometry" />
        </mxCell>
        <mxCell id="sI_rSDqrXAOF6AItgc4k-5" value="鱼&lt;br&gt;类" style="text;html=1;align=center;verticalAlign=middle;resizable=0;points=[];autosize=1;strokeColor=none;" vertex="1" parent="1">
          <mxGeometry x="95" y="425" width="30" height="30" as="geometry" />
        </mxCell>
        <mxCell id="sI_rSDqrXAOF6AItgc4k-6" value="蛙&lt;br&gt;鱼&lt;br&gt;类" style="text;html=1;align=center;verticalAlign=middle;resizable=0;points=[];autosize=1;strokeColor=none;" vertex="1" parent="1">
          <mxGeometry x="120" y="415" width="30" height="50" as="geometry" />
        </mxCell>
        <mxCell id="sI_rSDqrXAOF6AItgc4k-7" value="两&lt;br&gt;栖&lt;br&gt;类" style="text;html=1;align=center;verticalAlign=middle;resizable=0;points=[];autosize=1;strokeColor=none;" vertex="1" parent="1">
          <mxGeometry x="150" y="415" width="30" height="50" as="geometry" />
        </mxCell>
        <mxCell id="sI_rSDqrXAOF6AItgc4k-8" value="爬&lt;br&gt;虫&lt;br&gt;类" style="text;html=1;align=center;verticalAlign=middle;resizable=0;points=[];autosize=1;strokeColor=none;" vertex="1" parent="1">
          <mxGeometry x="180" y="415" width="30" height="50" as="geometry" />
        </mxCell>
        <mxCell id="sI_rSDqrXAOF6AItgc4k-9" value="鸟&lt;br&gt;类" style="text;html=1;align=center;verticalAlign=middle;resizable=0;points=[];autosize=1;strokeColor=none;" vertex="1" parent="1">
          <mxGeometry x="210" y="425" width="30" height="30" as="geometry" />
        </mxCell>
        <mxCell id="sI_rSDqrXAOF6AItgc4k-10" value="一&lt;br&gt;穴&lt;br&gt;类" style="text;html=1;align=center;verticalAlign=middle;resizable=0;points=[];autosize=1;strokeColor=none;" vertex="1" parent="1">
          <mxGeometry x="265" y="415" width="30" height="50" as="geometry" />
        </mxCell>
        <mxCell id="sI_rSDqrXAOF6AItgc4k-11" value="有&lt;br&gt;袋&lt;br&gt;类" style="text;html=1;align=center;verticalAlign=middle;resizable=0;points=[];autosize=1;strokeColor=none;" vertex="1" parent="1">
          <mxGeometry x="295" y="414.5" width="30" height="50" as="geometry" />
        </mxCell>
        <mxCell id="sI_rSDqrXAOF6AItgc4k-12" value="贫&lt;br&gt;齿&lt;br&gt;类" style="text;html=1;align=center;verticalAlign=middle;resizable=0;points=[];autosize=1;strokeColor=none;" vertex="1" parent="1">
          <mxGeometry x="325" y="415" width="30" height="50" as="geometry" />
        </mxCell>
        <mxCell id="sI_rSDqrXAOF6AItgc4k-14" value="生命之树——谱系树测绘（共同祖先的探寻）——鲁迅版" style="text;html=1;align=center;verticalAlign=middle;resizable=0;points=[];autosize=1;strokeColor=none;" vertex="1" parent="1">
          <mxGeometry x="5" y="250" width="320" height="20" as="geometry" />
        </mxCell>
        <mxCell id="sI_rSDqrXAOF6AItgc4k-15" value="啮&lt;br&gt;齿&lt;br&gt;类" style="text;html=1;align=center;verticalAlign=middle;resizable=0;points=[];autosize=1;strokeColor=none;" vertex="1" parent="1">
          <mxGeometry x="354" y="414" width="30" height="50" as="geometry" />
        </mxCell>
        <mxCell id="sI_rSDqrXAOF6AItgc4k-16" value="youshuilei" style="text;html=1;align=center;verticalAlign=middle;resizable=0;points=[];autosize=1;strokeColor=none;" vertex="1" parent="1">
          <mxGeometry x="405" y="420" width="70" height="20" as="geometry" />
        </mxCell>
        <mxCell id="sI_rSDqrXAOF6AItgc4k-17" value="&lt;span style=&quot;color: rgb(51 , 51 , 51) ; font-family: &amp;#34;arial&amp;#34; , &amp;#34;pingfang sc&amp;#34; , &amp;#34;microsoft yahei&amp;#34; , sans-serif ; background-color: rgb(255 , 255 , 255)&quot;&gt;&lt;font style=&quot;font-size: 12px&quot;&gt;新生代通常被称为哺乳动物的时代，更应称之为有胎盘类哺乳动物的时代，因为从白垩纪过渡到新生代以后，&lt;br&gt;这些动物几乎是地球上最占优势的动物。在新生代的历史中，单孔类有3个现生属作为代表，归属于一个目；&lt;br&gt;多瘤齿兽类这个目有17个第三纪早期的属；有袋类127个属，化石的和现生的，都包括在单一的目里；&lt;br&gt;而有胎盘类有2648个属，分别归属于29个目。新生代的有胎盘类占95％，无胎盘类仅占5％。&lt;/font&gt;&lt;/span&gt;" style="text;html=1;align=left;verticalAlign=middle;resizable=0;points=[];autosize=1;strokeColor=none;" vertex="1" parent="1">
          <mxGeometry x="580" y="40" width="590" height="60" as="geometry" />
        </mxCell>
      </root>
    </mxGraphModel>
  </diagram>
</mxfile>
